<?xml version="1.0" encoding="iso-8859-1"?>
<!-- Uploaded to: SVG Repo, www.svgrepo.com, Generator: SVG Repo Mixer Tools -->
<svg height="800px" width="800px" version="1.1" id="Layer_1" xmlns="http://www.w3.org/2000/svg" xmlns:xlink="http://www.w3.org/1999/xlink" 
	 viewBox="0 0 491.52 491.52" xml:space="preserve">
<path style="fill:#D5D6DB;" d="M481.287,126.943H10.231C4.579,126.943,0,131.525,0,137.176v230.576
	c0,5.652,4.579,10.231,10.231,10.231h471.057c5.651,0,10.233-4.58,10.233-10.231V137.176
	C491.52,131.525,486.938,126.943,481.287,126.943z"/>
<path style="fill:#EBF0F3;" d="M481.287,113.537H10.231C4.579,113.537,0,118.119,0,123.77v230.577c0,5.652,4.579,10.23,10.231,10.23
	h471.057c5.651,0,10.233-4.579,10.233-10.23V123.77C491.52,118.119,486.938,113.537,481.287,113.537z"/>
<g>
	<path style="fill:#3A556A;" d="M60.799,142.989h-31.11c-1.328,0-2.405,1.109-2.405,2.475v14.097c0,1.368,1.077,2.476,2.405,2.476
		h31.11c1.329,0,2.402-1.108,2.402-2.476v-14.097C63.2,144.098,62.127,142.989,60.799,142.989z"/>
	<path style="fill:#3A556A;" d="M130.058,142.989h-31.11c-1.328,0-2.405,1.109-2.405,2.475v14.097c0,1.368,1.078,2.476,2.405,2.476
		h31.11c1.328,0,2.402-1.108,2.402-2.476v-14.097C132.46,144.098,131.386,142.989,130.058,142.989z"/>
	<path style="fill:#3A556A;" d="M174.742,142.989h-31.11c-1.329,0-2.405,1.109-2.405,2.475v14.097c0,1.368,1.077,2.476,2.405,2.476
		h31.11c1.328,0,2.402-1.108,2.402-2.476v-14.097C177.144,144.098,176.07,142.989,174.742,142.989z"/>
	<path style="fill:#3A556A;" d="M219.426,142.989h-31.111c-1.328,0-2.405,1.109-2.405,2.475v14.097c0,1.368,1.077,2.476,2.405,2.476
		h31.111c1.328,0,2.402-1.108,2.402-2.476v-14.097C221.828,144.098,220.754,142.989,219.426,142.989z"/>
	<path style="fill:#3A556A;" d="M264.11,142.989h-31.111c-1.328,0-2.405,1.109-2.405,2.475v14.097c0,1.368,1.077,2.476,2.405,2.476
		h31.111c1.328,0,2.401-1.108,2.401-2.476v-14.097C266.511,144.098,265.438,142.989,264.11,142.989z"/>
	<path style="fill:#3A556A;" d="M327.784,142.989h-31.111c-1.328,0-2.405,1.109-2.405,2.475v14.097c0,1.368,1.077,2.476,2.405,2.476
		h31.111c1.328,0,2.401-1.108,2.401-2.476v-14.097C330.185,144.098,329.112,142.989,327.784,142.989z"/>
	<path style="fill:#3A556A;" d="M372.468,142.989h-31.111c-1.328,0-2.405,1.109-2.405,2.475v14.097c0,1.368,1.077,2.476,2.405,2.476
		h31.111c1.328,0,2.401-1.108,2.401-2.476v-14.097C374.868,144.098,373.796,142.989,372.468,142.989z"/>
	<path style="fill:#3A556A;" d="M417.151,142.989h-31.11c-1.328,0-2.405,1.109-2.405,2.475v14.097c0,1.368,1.077,2.476,2.405,2.476
		h31.11c1.329,0,2.402-1.108,2.402-2.476v-14.097C419.552,144.098,418.479,142.989,417.151,142.989z"/>
	<path style="fill:#3A556A;" d="M461.834,142.989h-31.11c-1.328,0-2.405,1.109-2.405,2.475v14.097c0,1.368,1.077,2.476,2.405,2.476
		h31.11c1.328,0,2.402-1.108,2.402-2.476v-14.097C464.236,144.098,463.162,142.989,461.834,142.989z"/>
</g>
<path style="fill:#64798A;" d="M60.799,140.091h-31.11c-1.328,0-2.405,1.108-2.405,2.475v14.097c0,1.367,1.077,2.475,2.405,2.475
	h31.11c1.329,0,2.402-1.108,2.402-2.475v-14.097C63.2,141.199,62.127,140.091,60.799,140.091z"/>
<path style="fill:#3A556A;" d="M60.799,187.831h-31.11c-1.328,0-2.405,1.108-2.405,2.475v22.069c0,1.368,1.077,2.475,2.405,2.475
	h31.11c1.329,0,2.402-1.107,2.402-2.475v-22.069C63.2,188.939,62.127,187.831,60.799,187.831z"/>
<path style="fill:#64798A;" d="M60.799,184.933h-31.11c-1.328,0-2.405,1.108-2.405,2.476v22.069c0,1.367,1.077,2.475,2.405,2.475
	h31.11c1.329,0,2.402-1.108,2.402-2.475v-22.069C63.2,186.041,62.127,184.933,60.799,184.933z"/>
<path style="fill:#3A556A;" d="M105.359,187.831H74.248c-1.328,0-2.405,1.108-2.405,2.475v22.069c0,1.368,1.077,2.475,2.405,2.475
	h31.111c1.328,0,2.401-1.107,2.401-2.475v-22.069C107.76,188.939,106.687,187.831,105.359,187.831z"/>
<path style="fill:#64798A;" d="M105.359,184.933H74.248c-1.328,0-2.405,1.108-2.405,2.476v22.069c0,1.367,1.077,2.475,2.405,2.475
	h31.111c1.328,0,2.401-1.108,2.401-2.475v-22.069C107.76,186.041,106.687,184.933,105.359,184.933z"/>
<path style="fill:#3A556A;" d="M149.918,187.831h-31.111c-1.328,0-2.405,1.108-2.405,2.475v22.069c0,1.368,1.077,2.475,2.405,2.475
	h31.111c1.328,0,2.401-1.107,2.401-2.475v-22.069C152.319,188.939,151.246,187.831,149.918,187.831z"/>
<path style="fill:#64798A;" d="M149.918,184.933h-31.111c-1.328,0-2.405,1.108-2.405,2.476v22.069c0,1.367,1.077,2.475,2.405,2.475
	h31.111c1.328,0,2.401-1.108,2.401-2.475v-22.069C152.319,186.041,151.246,184.933,149.918,184.933z"/>
<path style="fill:#3A556A;" d="M194.478,187.831h-31.111c-1.328,0-2.405,1.108-2.405,2.475v22.069c0,1.368,1.077,2.475,2.405,2.475
	h31.111c1.328,0,2.401-1.107,2.401-2.475v-22.069C196.878,188.939,195.805,187.831,194.478,187.831z"/>
<path style="fill:#64798A;" d="M194.478,184.933h-31.111c-1.328,0-2.405,1.108-2.405,2.476v22.069c0,1.367,1.077,2.475,2.405,2.475
	h31.111c1.328,0,2.401-1.108,2.401-2.475v-22.069C196.878,186.041,195.805,184.933,194.478,184.933z"/>
<path style="fill:#3A556A;" d="M239.037,187.831h-31.111c-1.328,0-2.405,1.108-2.405,2.475v22.069c0,1.368,1.077,2.475,2.405,2.475
	h31.111c1.328,0,2.402-1.107,2.402-2.475v-22.069C241.439,188.939,240.365,187.831,239.037,187.831z"/>
<path style="fill:#64798A;" d="M239.037,184.933h-31.111c-1.328,0-2.405,1.108-2.405,2.476v22.069c0,1.367,1.077,2.475,2.405,2.475
	h31.111c1.328,0,2.402-1.108,2.402-2.475v-22.069C241.439,186.041,240.365,184.933,239.037,184.933z"/>
<path style="fill:#3A556A;" d="M283.596,187.831h-31.111c-1.328,0-2.405,1.108-2.405,2.475v22.069c0,1.368,1.077,2.475,2.405,2.475
	h31.111c1.329,0,2.402-1.107,2.402-2.475v-22.069C285.999,188.939,284.925,187.831,283.596,187.831z"/>
<path style="fill:#64798A;" d="M283.596,184.933h-31.111c-1.328,0-2.405,1.108-2.405,2.476v22.069c0,1.367,1.077,2.475,2.405,2.475
	h31.111c1.329,0,2.402-1.108,2.402-2.475v-22.069C285.999,186.041,284.925,184.933,283.596,184.933z"/>
<path style="fill:#3A556A;" d="M328.156,187.831h-31.112c-1.328,0-2.405,1.108-2.405,2.475v22.069c0,1.368,1.077,2.475,2.405,2.475
	h31.112c1.328,0,2.402-1.107,2.402-2.475v-22.069C330.558,188.939,329.484,187.831,328.156,187.831z"/>
<path style="fill:#64798A;" d="M328.156,184.933h-31.112c-1.328,0-2.405,1.108-2.405,2.476v22.069c0,1.367,1.077,2.475,2.405,2.475
	h31.112c1.328,0,2.402-1.108,2.402-2.475v-22.069C330.558,186.041,329.484,184.933,328.156,184.933z"/>
<path style="fill:#3A556A;" d="M372.716,187.831h-31.112c-1.328,0-2.405,1.108-2.405,2.475v22.069c0,1.368,1.077,2.475,2.405,2.475
	h31.112c1.328,0,2.402-1.107,2.402-2.475v-22.069C375.117,188.939,374.044,187.831,372.716,187.831z"/>
<path style="fill:#64798A;" d="M372.716,184.933h-31.112c-1.328,0-2.405,1.108-2.405,2.476v22.069c0,1.367,1.077,2.475,2.405,2.475
	h31.112c1.328,0,2.402-1.108,2.402-2.475v-22.069C375.117,186.041,374.044,184.933,372.716,184.933z"/>
<path style="fill:#3A556A;" d="M417.275,187.831h-31.11c-1.329,0-2.405,1.108-2.405,2.475v22.069c0,1.368,1.076,2.475,2.405,2.475
	h31.11c1.328,0,2.402-1.107,2.402-2.475v-22.069C419.677,188.939,418.603,187.831,417.275,187.831z"/>
<path style="fill:#64798A;" d="M417.275,184.933h-31.11c-1.329,0-2.405,1.108-2.405,2.476v22.069c0,1.367,1.076,2.475,2.405,2.475
	h31.11c1.328,0,2.402-1.108,2.402-2.475v-22.069C419.677,186.041,418.603,184.933,417.275,184.933z"/>
<path style="fill:#3A556A;" d="M461.834,187.831h-31.11c-1.328,0-2.405,1.108-2.405,2.475v22.069c0,1.368,1.077,2.475,2.405,2.475
	h31.11c1.328,0,2.402-1.107,2.402-2.475v-22.069C464.236,188.939,463.162,187.831,461.834,187.831z"/>
<path style="fill:#64798A;" d="M461.834,184.933h-31.11c-1.328,0-2.405,1.108-2.405,2.476v22.069c0,1.367,1.077,2.475,2.405,2.475
	h31.11c1.328,0,2.402-1.108,2.402-2.475v-22.069C464.236,186.041,463.162,184.933,461.834,184.933z"/>
<path style="fill:#3A556A;" d="M87.4,228.889H29.689c-1.328,0-2.405,1.109-2.405,2.475v22.069c0,1.367,1.077,2.475,2.405,2.475H87.4
	c1.328,0,2.401-1.108,2.401-2.475v-22.069C89.801,229.998,88.728,228.889,87.4,228.889z"/>
<path style="fill:#64798A;" d="M87.4,225.991H29.689c-1.328,0-2.405,1.108-2.405,2.475v22.069c0,1.367,1.077,2.476,2.405,2.476H87.4
	c1.328,0,2.401-1.109,2.401-2.476v-22.069C89.801,227.099,88.728,225.991,87.4,225.991z"/>
<path style="fill:#3A556A;" d="M132.809,228.889h-31.111c-1.328,0-2.405,1.109-2.405,2.475v22.069c0,1.367,1.077,2.475,2.405,2.475
	h31.111c1.329,0,2.402-1.108,2.402-2.475v-22.069C135.212,229.998,134.138,228.889,132.809,228.889z"/>
<path style="fill:#64798A;" d="M132.809,225.991h-31.111c-1.328,0-2.405,1.108-2.405,2.475v22.069c0,1.367,1.077,2.476,2.405,2.476
	h31.111c1.329,0,2.402-1.109,2.402-2.476v-22.069C135.212,227.099,134.138,225.991,132.809,225.991z"/>
<path style="fill:#3A556A;" d="M177.37,228.889h-31.111c-1.329,0-2.405,1.109-2.405,2.475v22.069c0,1.367,1.077,2.475,2.405,2.475
	h31.111c1.328,0,2.402-1.108,2.402-2.475v-22.069C179.771,229.998,178.697,228.889,177.37,228.889z"/>
<path style="fill:#64798A;" d="M177.37,225.991h-31.111c-1.329,0-2.405,1.108-2.405,2.475v22.069c0,1.367,1.077,2.476,2.405,2.476
	h31.111c1.328,0,2.402-1.109,2.402-2.476v-22.069C179.771,227.099,178.697,225.991,177.37,225.991z"/>
<path style="fill:#3A556A;" d="M221.929,228.889h-31.11c-1.329,0-2.406,1.109-2.406,2.475v22.069c0,1.367,1.077,2.475,2.406,2.475
	h31.11c1.328,0,2.402-1.108,2.402-2.475v-22.069C224.33,229.998,223.257,228.889,221.929,228.889z"/>
<path style="fill:#64798A;" d="M221.929,225.991h-31.11c-1.329,0-2.406,1.108-2.406,2.475v22.069c0,1.367,1.077,2.476,2.406,2.476
	h31.11c1.328,0,2.402-1.109,2.402-2.476v-22.069C224.33,227.099,223.257,225.991,221.929,225.991z"/>
<path style="fill:#3A556A;" d="M266.488,228.889h-31.11c-1.329,0-2.405,1.109-2.405,2.475v22.069c0,1.367,1.077,2.475,2.405,2.475
	h31.11c1.329,0,2.402-1.108,2.402-2.475v-22.069C268.89,229.998,267.817,228.889,266.488,228.889z"/>
<path style="fill:#64798A;" d="M266.488,225.991h-31.11c-1.329,0-2.405,1.108-2.405,2.475v22.069c0,1.367,1.077,2.476,2.405,2.476
	h31.11c1.329,0,2.402-1.109,2.402-2.476v-22.069C268.89,227.099,267.817,225.991,266.488,225.991z"/>
<path style="fill:#3A556A;" d="M311.048,228.889h-31.111c-1.328,0-2.405,1.109-2.405,2.475v22.069c0,1.367,1.077,2.475,2.405,2.475
	h31.111c1.328,0,2.401-1.108,2.401-2.475v-22.069C313.449,229.998,312.376,228.889,311.048,228.889z"/>
<path style="fill:#64798A;" d="M311.048,225.991h-31.111c-1.328,0-2.405,1.108-2.405,2.475v22.069c0,1.367,1.077,2.476,2.405,2.476
	h31.111c1.328,0,2.401-1.109,2.401-2.476v-22.069C313.449,227.099,312.376,225.991,311.048,225.991z"/>
<path style="fill:#3A556A;" d="M355.607,228.889h-31.11c-1.328,0-2.405,1.109-2.405,2.475v22.069c0,1.367,1.077,2.475,2.405,2.475
	h31.11c1.329,0,2.402-1.108,2.402-2.475v-22.069C358.009,229.998,356.936,228.889,355.607,228.889z"/>
<path style="fill:#64798A;" d="M355.607,225.991h-31.11c-1.328,0-2.405,1.108-2.405,2.475v22.069c0,1.367,1.077,2.476,2.405,2.476
	h31.11c1.329,0,2.402-1.109,2.402-2.476v-22.069C358.009,227.099,356.936,225.991,355.607,225.991z"/>
<path style="fill:#3A556A;" d="M400.167,228.889h-31.111c-1.328,0-2.405,1.109-2.405,2.475v22.069c0,1.367,1.077,2.475,2.405,2.475
	h31.111c1.328,0,2.401-1.108,2.401-2.475v-22.069C402.568,229.998,401.495,228.889,400.167,228.889z"/>
<path style="fill:#64798A;" d="M400.167,225.991h-31.111c-1.328,0-2.405,1.108-2.405,2.475v22.069c0,1.367,1.077,2.476,2.405,2.476
	h31.111c1.328,0,2.401-1.109,2.401-2.476v-22.069C402.568,227.099,401.495,225.991,400.167,225.991z"/>
<path style="fill:#3A556A;" d="M461.834,228.889h-48.219c-1.328,0-2.405,1.109-2.405,2.475v22.069c0,1.367,1.077,2.475,2.405,2.475
	h48.219c1.328,0,2.402-1.108,2.402-2.475v-22.069C464.236,229.998,463.162,228.889,461.834,228.889z"/>
<path style="fill:#64798A;" d="M461.834,225.991h-48.219c-1.328,0-2.405,1.108-2.405,2.475v22.069c0,1.367,1.077,2.476,2.405,2.476
	h48.219c1.328,0,2.402-1.109,2.402-2.476v-22.069C464.236,227.099,463.162,225.991,461.834,225.991z"/>
<path style="fill:#3A556A;" d="M105.359,269.947h-75.67c-1.328,0-2.405,1.108-2.405,2.475v22.069c0,1.367,1.077,2.475,2.405,2.475
	h75.67c1.328,0,2.401-1.108,2.401-2.475v-22.069C107.76,271.055,106.687,269.947,105.359,269.947z"/>
<path style="fill:#64798A;" d="M105.359,267.048h-75.67c-1.328,0-2.405,1.108-2.405,2.475v22.069c0,1.368,1.077,2.476,2.405,2.476
	h75.67c1.328,0,2.401-1.108,2.401-2.476v-22.069C107.76,268.156,106.687,267.048,105.359,267.048z"/>
<path style="fill:#3A556A;" d="M149.918,269.947h-31.111c-1.328,0-2.405,1.108-2.405,2.475v22.069c0,1.367,1.077,2.475,2.405,2.475
	h31.111c1.328,0,2.401-1.108,2.401-2.475v-22.069C152.319,271.055,151.246,269.947,149.918,269.947z"/>
<path style="fill:#64798A;" d="M149.918,267.048h-31.111c-1.328,0-2.405,1.108-2.405,2.475v22.069c0,1.368,1.077,2.476,2.405,2.476
	h31.111c1.328,0,2.401-1.108,2.401-2.476v-22.069C152.319,268.156,151.246,267.048,149.918,267.048z"/>
<path style="fill:#3A556A;" d="M194.478,269.947h-31.111c-1.328,0-2.405,1.108-2.405,2.475v22.069c0,1.367,1.077,2.475,2.405,2.475
	h31.111c1.328,0,2.401-1.108,2.401-2.475v-22.069C196.878,271.055,195.805,269.947,194.478,269.947z"/>
<path style="fill:#64798A;" d="M194.478,267.048h-31.111c-1.328,0-2.405,1.108-2.405,2.475v22.069c0,1.368,1.077,2.476,2.405,2.476
	h31.111c1.328,0,2.401-1.108,2.401-2.476v-22.069C196.878,268.156,195.805,267.048,194.478,267.048z"/>
<path style="fill:#3A556A;" d="M239.037,269.947h-31.111c-1.328,0-2.405,1.108-2.405,2.475v22.069c0,1.367,1.077,2.475,2.405,2.475
	h31.111c1.328,0,2.402-1.108,2.402-2.475v-22.069C241.439,271.055,240.365,269.947,239.037,269.947z"/>
<path style="fill:#64798A;" d="M239.037,267.048h-31.111c-1.328,0-2.405,1.108-2.405,2.475v22.069c0,1.368,1.077,2.476,2.405,2.476
	h31.111c1.328,0,2.402-1.108,2.402-2.476v-22.069C241.439,268.156,240.365,267.048,239.037,267.048z"/>
<path style="fill:#3A556A;" d="M283.596,269.947h-31.111c-1.328,0-2.405,1.108-2.405,2.475v22.069c0,1.367,1.077,2.475,2.405,2.475
	h31.111c1.329,0,2.402-1.108,2.402-2.475v-22.069C285.999,271.055,284.925,269.947,283.596,269.947z"/>
<path style="fill:#64798A;" d="M283.596,267.048h-31.111c-1.328,0-2.405,1.108-2.405,2.475v22.069c0,1.368,1.077,2.476,2.405,2.476
	h31.111c1.329,0,2.402-1.108,2.402-2.476v-22.069C285.999,268.156,284.925,267.048,283.596,267.048z"/>
<path style="fill:#3A556A;" d="M372.716,269.947h-31.112c-1.328,0-2.405,1.108-2.405,2.475v22.069c0,1.367,1.077,2.475,2.405,2.475
	h31.112c1.328,0,2.402-1.108,2.402-2.475v-22.069C375.117,271.055,374.044,269.947,372.716,269.947z"/>
<path style="fill:#64798A;" d="M372.716,267.048h-31.112c-1.328,0-2.405,1.108-2.405,2.475v22.069c0,1.368,1.077,2.476,2.405,2.476
	h31.112c1.328,0,2.402-1.108,2.402-2.476v-22.069C375.117,268.156,374.044,267.048,372.716,267.048z"/>
<path style="fill:#3A556A;" d="M461.834,269.947h-31.11c-1.328,0-2.405,1.108-2.405,2.475v22.069c0,1.367,1.077,2.475,2.405,2.475
	h31.11c1.328,0,2.402-1.108,2.402-2.475v-22.069C464.236,271.055,463.162,269.947,461.834,269.947z"/>
<path style="fill:#64798A;" d="M461.834,267.048h-31.11c-1.328,0-2.405,1.108-2.405,2.475v22.069c0,1.368,1.077,2.476,2.405,2.476
	h31.11c1.328,0,2.402-1.108,2.402-2.476v-22.069C464.236,268.156,463.162,267.048,461.834,267.048z"/>
<path style="fill:#3A556A;" d="M60.799,311.005h-31.11c-1.328,0-2.405,1.108-2.405,2.475v22.07c0,1.366,1.077,2.474,2.405,2.474
	h31.11c1.329,0,2.402-1.108,2.402-2.474v-22.07C63.2,312.113,62.127,311.005,60.799,311.005z"/>
<path style="fill:#64798A;" d="M60.799,308.106h-31.11c-1.328,0-2.405,1.108-2.405,2.475v22.069c0,1.366,1.077,2.475,2.405,2.475
	h31.11c1.329,0,2.402-1.109,2.402-2.475v-22.069C63.2,309.214,62.127,308.106,60.799,308.106z"/>
<path style="fill:#3A556A;" d="M239.037,311.005H74.248c-1.328,0-2.405,1.108-2.405,2.475v22.07c0,1.366,1.077,2.474,2.405,2.474
	h164.789c1.328,0,2.402-1.108,2.402-2.474v-22.07C241.439,312.113,240.365,311.005,239.037,311.005z"/>
<path style="fill:#64798A;" d="M239.037,308.106H74.248c-1.328,0-2.405,1.108-2.405,2.475v22.069c0,1.366,1.077,2.475,2.405,2.475
	h164.789c1.328,0,2.402-1.109,2.402-2.475v-22.069C241.439,309.214,240.365,308.106,239.037,308.106z"/>
<path style="fill:#3A556A;" d="M283.596,311.005h-31.111c-1.328,0-2.405,1.108-2.405,2.475v22.07c0,1.366,1.077,2.474,2.405,2.474
	h31.111c1.329,0,2.402-1.108,2.402-2.474v-22.07C285.999,312.113,284.925,311.005,283.596,311.005z"/>
<path style="fill:#64798A;" d="M283.596,308.106h-31.111c-1.328,0-2.405,1.108-2.405,2.475v22.069c0,1.366,1.077,2.475,2.405,2.475
	h31.111c1.329,0,2.402-1.109,2.402-2.475v-22.069C285.999,309.214,284.925,308.106,283.596,308.106z"/>
<path style="fill:#3A556A;" d="M328.156,311.005h-31.112c-1.328,0-2.405,1.108-2.405,2.475v22.07c0,1.366,1.077,2.474,2.405,2.474
	h31.112c1.328,0,2.402-1.108,2.402-2.474v-22.07C330.558,312.113,329.484,311.005,328.156,311.005z"/>
<path style="fill:#64798A;" d="M328.156,308.106h-31.112c-1.328,0-2.405,1.108-2.405,2.475v22.069c0,1.366,1.077,2.475,2.405,2.475
	h31.112c1.328,0,2.402-1.109,2.402-2.475v-22.069C330.558,309.214,329.484,308.106,328.156,308.106z"/>
<path style="fill:#3A556A;" d="M372.716,311.005h-31.112c-1.328,0-2.405,1.108-2.405,2.475v22.07c0,1.366,1.077,2.474,2.405,2.474
	h31.112c1.328,0,2.402-1.108,2.402-2.474v-22.07C375.117,312.113,374.044,311.005,372.716,311.005z"/>
<path style="fill:#64798A;" d="M372.716,308.106h-31.112c-1.328,0-2.405,1.108-2.405,2.475v22.069c0,1.366,1.077,2.475,2.405,2.475
	h31.112c1.328,0,2.402-1.109,2.402-2.475v-22.069C375.117,309.214,374.044,308.106,372.716,308.106z"/>
<path style="fill:#3A556A;" d="M417.275,311.005h-31.11c-1.329,0-2.405,1.108-2.405,2.475v22.07c0,1.366,1.076,2.474,2.405,2.474
	h31.11c1.328,0,2.402-1.108,2.402-2.474v-22.07C419.677,312.113,418.603,311.005,417.275,311.005z"/>
<path style="fill:#64798A;" d="M417.275,308.106h-31.11c-1.329,0-2.405,1.108-2.405,2.475v22.069c0,1.366,1.076,2.475,2.405,2.475
	h31.11c1.328,0,2.402-1.109,2.402-2.475v-22.069C419.677,309.214,418.603,308.106,417.275,308.106z"/>
<path style="fill:#3A556A;" d="M461.834,311.005h-31.11c-1.328,0-2.405,1.108-2.405,2.475v22.07c0,1.366,1.077,2.474,2.405,2.474
	h31.11c1.328,0,2.402-1.108,2.402-2.474v-22.07C464.236,312.113,463.162,311.005,461.834,311.005z"/>
<g>
	<path style="fill:#64798A;" d="M461.834,308.106h-31.11c-1.328,0-2.405,1.108-2.405,2.475v22.069c0,1.366,1.077,2.475,2.405,2.475
		h31.11c1.328,0,2.402-1.109,2.402-2.475v-22.069C464.236,309.214,463.162,308.106,461.834,308.106z"/>
	<path style="fill:#64798A;" d="M130.058,140.091h-31.11c-1.328,0-2.405,1.108-2.405,2.475v14.097c0,1.367,1.078,2.475,2.405,2.475
		h31.11c1.328,0,2.402-1.108,2.402-2.475v-14.097C132.46,141.199,131.386,140.091,130.058,140.091z"/>
	<path style="fill:#64798A;" d="M174.742,140.091h-31.11c-1.329,0-2.405,1.108-2.405,2.475v14.097c0,1.367,1.077,2.475,2.405,2.475
		h31.11c1.328,0,2.402-1.108,2.402-2.475v-14.097C177.144,141.199,176.07,140.091,174.742,140.091z"/>
	<path style="fill:#64798A;" d="M219.426,140.091h-31.111c-1.328,0-2.405,1.108-2.405,2.475v14.097c0,1.367,1.077,2.475,2.405,2.475
		h31.111c1.328,0,2.402-1.108,2.402-2.475v-14.097C221.828,141.199,220.754,140.091,219.426,140.091z"/>
	<path style="fill:#64798A;" d="M264.11,140.091h-31.111c-1.328,0-2.405,1.108-2.405,2.475v14.097c0,1.367,1.077,2.475,2.405,2.475
		h31.111c1.328,0,2.401-1.108,2.401-2.475v-14.097C266.511,141.199,265.438,140.091,264.11,140.091z"/>
	<path style="fill:#64798A;" d="M327.784,140.091h-31.111c-1.328,0-2.405,1.108-2.405,2.475v14.097c0,1.367,1.077,2.475,2.405,2.475
		h31.111c1.328,0,2.401-1.108,2.401-2.475v-14.097C330.185,141.199,329.112,140.091,327.784,140.091z"/>
	<path style="fill:#64798A;" d="M372.468,140.091h-31.111c-1.328,0-2.405,1.108-2.405,2.475v14.097c0,1.367,1.077,2.475,2.405,2.475
		h31.111c1.328,0,2.401-1.108,2.401-2.475v-14.097C374.868,141.199,373.796,140.091,372.468,140.091z"/>
	<path style="fill:#64798A;" d="M417.151,140.091h-31.11c-1.328,0-2.405,1.108-2.405,2.475v14.097c0,1.367,1.077,2.475,2.405,2.475
		h31.11c1.329,0,2.402-1.108,2.402-2.475v-14.097C419.552,141.199,418.479,140.091,417.151,140.091z"/>
	<path style="fill:#64798A;" d="M461.834,140.091h-31.11c-1.328,0-2.405,1.108-2.405,2.475v14.097c0,1.367,1.077,2.475,2.405,2.475
		h31.11c1.328,0,2.402-1.108,2.402-2.475v-14.097C464.236,141.199,463.162,140.091,461.834,140.091z"/>
</g>
</svg>